<svg xmlns="http://www.w3.org/2000/svg" width="301.5" height="92.4" viewBox="-154 350.6 301.5 92.4" enable-background="new -154 350.6 301.5 92.4"><path d="M-60 403.2l-1.8 5.1h-1.7l5.2-14.7h2.1l5.3 14.7h-1.8l-1.8-5.1H-60zm3.6-5.2c-.4-1.1-.6-1.8-.9-2.8-.3.8-.3 1-.4 1.3l-.5 1.5-1.3 3.9h4.5l-1.4-3.9zM-43.8 406.4c1.4.5 2.5.7 3.6.7 1.8 0 3-1 3-2.6 0-.7-.2-1.3-.7-1.7-.4-.4-.9-.7-2.3-1.3-1.7-.8-2.3-1-2.8-1.6-.7-.6-1.1-1.5-1.1-2.6 0-2.4 1.8-4 4.6-4 1.1 0 2 .2 3.5.7l-.3 1.5c-1.1-.5-2.1-.8-3.1-.8-1.6 0-2.8.9-2.8 2.3 0 1.2.7 1.9 2.8 2.8 1.6.7 2.3 1.1 3 1.7.8.7 1.2 1.7 1.2 2.8 0 2.6-1.9 4.2-4.9 4.2-1.2 0-2.3-.2-3.7-.7v-1.4zM-30.4 393.8c0 .7-.5 1.1-1.1 1.1-.7 0-1.1-.5-1.1-1.2s.5-1.1 1.1-1.1c.6 0 1.1.5 1.1 1.2zm-2 3.8h1.6v10.8h-1.6v-10.8zM-26.2 403.4c.3 2.7 1.3 3.9 3.5 3.9 1 0 2-.3 3-1l.6 1.3c-1.1.7-2.3 1.1-3.6 1.1-3.2 0-5.1-2.1-5.1-5.6 0-3.5 1.8-5.6 4.7-5.6 1.9 0 3.2.8 3.8 2.4.4 1 .6 1.9.6 3.7h-7.5zm5.7-1.3c-.1-2.2-1-3.4-2.8-3.4-1.7 0-2.8 1.3-2.9 3.4h5.7zM-15.9 401.1c0-1.8 0-2.8-.1-3.5h1.6l.1 1.7c1.3-1.4 2.3-1.9 3.6-1.9 1.5 0 2.5.7 2.8 2.1 1.4-1.6 2.4-2.1 3.8-2.1 1.3 0 2.2.5 2.7 1.5.3.7.4 1.6.4 3.3v6.2h-1.6v-6.2c0-1.1-.1-1.8-.2-2.3-.2-.7-.8-1.1-1.7-1.1-1.1 0-2.1.7-3.1 2v7.7h-1.6V402c0-1.1-.1-1.7-.3-2.2-.3-.7-.8-1.1-1.6-1.1-1.1 0-2.1.7-3.2 2v7.7h-1.6v-7.3zM3.5 403.4c.3 2.7 1.3 3.9 3.5 3.9 1 0 2-.3 3-1l.6 1.3c-1.1.7-2.3 1.1-3.6 1.1-3.2 0-5.1-2.1-5.1-5.6 0-3.5 1.8-5.6 4.7-5.6 1.9 0 3.2.8 3.8 2.4.4 1 .6 1.9.6 3.7H3.5zm5.7-1.3c-.1-2.2-1-3.4-2.8-3.4-1.7 0-2.8 1.3-2.9 3.4h5.7zM13.8 401.1c0-1.8 0-2.8-.1-3.5h1.6l.1 1.7c1.3-1.4 2.4-1.9 3.9-1.9 1.3 0 2.3.5 2.8 1.5.3.7.4 1.6.4 3.3v6.2h-1.6v-6.2c0-1.1-.1-1.8-.2-2.3-.3-.7-.9-1.1-1.8-1.1-1.2 0-2.3.7-3.4 2v7.7h-1.6v-7.4zM25.8 406.6c1 .5 1.8.7 2.6.7 1.2 0 2.1-.7 2.1-1.8 0-.9-.3-1.2-2.1-1.9-2.2-.9-3-1.7-3-3.1 0-1.8 1.4-3 3.5-3 1.1 0 2 .2 3.1.8l-.5 1.3c-.8-.5-1.6-.8-2.4-.8-1.2 0-2 .6-2 1.6 0 .8.4 1.2 2.2 1.9 2.3.9 2.9 1.6 2.9 3.1 0 1.9-1.5 3.2-3.8 3.2-1.1 0-2-.2-3.1-.7l.5-1.3zM40.5 393.7h2.3c2.2 0 3 .1 4 .5 1.2.5 2 1.7 2 3.3 0 2-.9 3-3 3.4 2.2.3 3.4 1.5 3.4 3.6 0 1.6-.7 2.8-1.9 3.4-.9.5-1.5.6-3.8.6h-2.9v-14.8zm2.5 6.6c1.5 0 2.4-.1 2.9-.5.7-.4 1-1.1 1-2.1s-.4-1.8-1-2.2c-.6-.3-1.3-.4-2.9-.4h-.8v5.2h.8zm0 6.7c1.9 0 2.6-.1 3.2-.4.7-.4 1.1-1.2 1.1-2.3 0-1.2-.5-2-1.5-2.4-.6-.3-1.4-.3-2.9-.3h-.8v5.4h.9zM60.6 404.9c0 1.8 0 2.8.1 3.5h-1.6l-.1-1.7c-1.3 1.3-2.4 1.9-3.8 1.9-1.3 0-2.3-.5-2.7-1.5-.3-.7-.4-1.6-.4-3.3v-6.2h1.6v6.2c0 1.1.1 1.8.2 2.3.3.7.9 1.1 1.8 1.1 1.1 0 2.3-.7 3.4-2v-7.7h1.6v7.4zM64 406.6c1 .5 1.8.7 2.6.7 1.2 0 2.1-.7 2.1-1.8 0-.9-.3-1.2-2.1-1.9-2.2-.9-3-1.7-3-3.1 0-1.8 1.4-3 3.5-3 1.1 0 2 .2 3.1.8l-.5 1.3c-.8-.5-1.6-.8-2.4-.8-1.2 0-2 .6-2 1.6 0 .8.4 1.2 2.2 1.9 2.3.9 2.9 1.6 2.9 3.1 0 1.9-1.5 3.2-3.8 3.2-1.1 0-2-.2-3.1-.7l.5-1.3zM75.3 393.8c0 .7-.5 1.1-1.1 1.1s-1.1-.5-1.1-1.2.5-1.1 1.1-1.1c.6 0 1.1.5 1.1 1.2zm-2 3.8h1.6v10.8h-1.6v-10.8zM78.6 401.1c0-1.8 0-2.8-.1-3.5h1.6l.1 1.7c1.3-1.4 2.4-1.9 3.9-1.9 1.3 0 2.3.5 2.8 1.5.3.7.4 1.6.4 3.3v6.2h-1.6v-6.2c0-1.1-.1-1.8-.2-2.3-.3-.7-.9-1.1-1.8-1.1-1.2 0-2.3.7-3.4 2v7.7h-1.6v-7.4zM91.9 403.4c.3 2.7 1.3 3.9 3.5 3.9 1 0 2-.3 3-1l.6 1.3c-1.1.7-2.3 1.1-3.6 1.1-3.2 0-5.1-2.1-5.1-5.6 0-3.5 1.8-5.6 4.7-5.6 1.9 0 3.2.8 3.8 2.4.4 1 .6 1.9.6 3.7h-7.5zm5.7-1.3c-.1-2.2-1-3.4-2.8-3.4-1.7 0-2.8 1.3-2.9 3.4h5.7zM101.8 406.6c1 .5 1.8.7 2.6.7 1.2 0 2.1-.7 2.1-1.8 0-.9-.3-1.2-2.1-1.9-2.2-.9-3-1.7-3-3.1 0-1.8 1.4-3 3.5-3 1.1 0 2 .2 3.1.8l-.5 1.3c-.8-.5-1.6-.8-2.4-.8-1.2 0-2 .6-2 1.6 0 .8.4 1.2 2.2 1.9 2.3.9 2.9 1.6 2.9 3.1 0 1.9-1.5 3.2-3.8 3.2-1.1 0-2-.2-3.1-.7l.5-1.3zM110.5 406.6c1 .5 1.8.7 2.6.7 1.2 0 2.1-.7 2.1-1.8 0-.9-.3-1.2-2.1-1.9-2.2-.9-3-1.7-3-3.1 0-1.8 1.4-3 3.5-3 1.1 0 2 .2 3.1.8l-.5 1.3c-.8-.5-1.6-.8-2.4-.8-1.2 0-2 .6-2 1.6 0 .8.4 1.2 2.2 1.9 2.3.9 2.9 1.6 2.9 3.1 0 1.9-1.5 3.2-3.8 3.2-1.1 0-2-.2-3.1-.7l.5-1.3z"/><path fill="#E1281E" d="M114.4 387.9c1.2 0 2.5-1.3 2.5-2.5s-1.3-2.5-2.5-2.5h-265.9c-1.2 0-2.5 1.3-2.5 2.5s1.3 2.5 2.5 2.5h265.9z"/><path d="M-147 356.2h4.6c.4 0 .7.1 1 .2 1.4.5 2.4 1.7 2.8 3.6.2.8.3 1.9.3 3.3 0 1.1-.1 2-.2 2.8-.1.8-.3 1.5-.6 2.1-.3.6-.6 1.1-1 1.5-.3.3-.6.5-.9.6-.3.2-.7.3-1.2.3-.4.1-1 .1-1.7.1h-3v-14.5zm2.9 20.1c1.3 0 2.5-.1 3.6-.3 1.1-.2 2.2-.6 3.2-1s1.8-1 2.6-1.6c2.2-1.9 3.3-5.3 3.3-10.2 0-1.8-.2-3.4-.5-4.6-.3-1-.6-1.9-1-2.7-.4-.8-.9-1.5-1.5-2.1-.6-.6-1.3-1.1-2-1.5-.8-.4-1.6-.8-2.6-1-1.5-.4-2.9-.6-4.3-.6H-154v25.7h9.9zM-122.9 356.2h6c.8 0 1.3.2 1.7.6.4.4.5 1 .5 1.8 0 .9-.2 1.5-.5 1.9-.3.4-.9.5-1.8.5h-5.9v-4.8zm0 20.1v-9.8h2.9c1 0 1.8.1 2.3.2.5.1 1 .4 1.5.8s.8.9 1.1 1.6c.3.7.4 1.4.4 2.1v5.1h7v-7.8c0-.8-.2-1.5-.5-2.3-.2-.5-.4-.9-.8-1.3-.3-.3-.8-.7-1.3-1 .4-.3.7-.6 1-.8.2-.2.4-.5.6-.9.7-1.1 1.1-2.5 1.1-4.2 0-1.2-.2-2.2-.5-3.1-.4-.9-.9-1.7-1.5-2.3-.7-.6-1.5-1.1-2.5-1.4-1-.3-2.2-.5-3.5-.5h-14v25.7h6.7zM-86.6 376.3h-15.5c-.3 0-.7-.1-1-.2-1.1-.3-1.9-.9-2.4-1.8-.5-.8-.7-2-.7-3.6v-14.8c0-1.1.1-1.9.3-2.5.2-.6.5-1.1 1-1.6.8-.7 1.8-1.1 3.1-1.2h15.4v5.6H-97c-.8 0-1.4.2-1.7.5-.3.3-.4.9-.4 1.8v2.3h12.7v5.6h-12.7v2.5c0 .6.1 1 .2 1.2.1.3.3.4.6.5.3.1.7.2 1.3.2h10.7v5.5zM-84.5 376.3v-5.6H-72c.8 0 1.2 0 1.4-.1.8-.2 1.2-.8 1.2-1.9 0-.8-.2-1.3-.6-1.6-.2-.2-.4-.3-.7-.3-.3-.1-.7-.1-1.4-.1h-5.1c-1 0-1.9-.1-2.7-.2-.8-.1-1.4-.4-2-.7-.6-.3-1.2-.7-1.7-1.2s-.9-1-1.2-1.6c-.3-.6-.5-1.2-.7-1.9-.1-.7-.2-1.5-.2-2.5 0-2.8.7-4.9 2.1-6.2 1.2-1.1 2.7-1.7 4.5-1.8h13.6v5.6H-76c-.6 0-1.1 0-1.3.1-.3.1-.5.2-.7.4-.4.3-.6.9-.6 1.6 0 .7.2 1.2.5 1.5.3.2.5.4.8.5.3.1.7.1 1.4.1h6.5c2.3 0 4.1.7 5.2 2.1.6.7 1 1.5 1.3 2.4.3.9.4 2 .4 3.2 0 1.5-.2 2.7-.6 3.8-.4 1.1-.9 1.9-1.6 2.5-.5.4-1.1.8-1.8 1.1-.7.3-1.5.5-2.4.7-.9.2-1.9.2-2.9.2h-12.7zM-60.4 376.3v-5.6H-48c.8 0 1.2 0 1.4-.1.8-.2 1.2-.8 1.2-1.9 0-.8-.2-1.3-.6-1.6-.2-.2-.4-.3-.7-.3-.3-.1-.7-.1-1.4-.1h-5.1c-1 0-1.9-.1-2.7-.2-.8-.1-1.4-.4-2-.7-.6-.3-1.2-.7-1.7-1.2s-.9-1-1.2-1.6c-.3-.6-.5-1.2-.7-1.9-.1-.7-.2-1.5-.2-2.5 0-2.8.7-4.9 2.1-6.2 1.2-1.1 2.7-1.7 4.5-1.8h13.6v5.6H-52c-.6 0-1.1 0-1.3.1-.3.1-.5.2-.7.4-.4.3-.6.9-.6 1.6 0 .7.2 1.2.5 1.5.3.2.5.4.8.5.3.1.7.1 1.4.1h6.5c2.3 0 4.1.7 5.2 2.1.6.7 1 1.5 1.3 2.4.3.9.4 2 .4 3.2 0 1.5-.2 2.7-.6 3.8-.4 1.1-.9 1.9-1.6 2.5-.5.4-1.1.8-1.8 1.1-.7.3-1.5.5-2.4.7-.9.2-1.9.2-2.9.2h-12.6zM-17.3 376.3h-15.5c-.3 0-.7-.1-1-.2-1.1-.3-1.9-.9-2.4-1.8-.5-.8-.7-2-.7-3.6v-14.8c0-1.1.1-1.9.3-2.5.2-.6.5-1.1 1-1.6.8-.7 1.8-1.1 3.1-1.2h15.4v5.6h-10.6c-.8 0-1.4.2-1.7.5-.3.3-.4.9-.4 1.8v2.3h12.7v5.6H-30v2.5c0 .6.1 1 .2 1.2.1.3.3.4.6.5.3.1.7.2 1.3.2h10.7v5.5zM-8.8 356.2h6c.8 0 1.3.2 1.7.6.4.4.5 1 .5 1.8 0 .9-.2 1.5-.5 1.9-.3.4-.9.5-1.8.5h-5.9v-4.8zm0 20.1v-9.8H-6c1 0 1.8.1 2.3.2.5.1 1 .4 1.5.8s.8.9 1.1 1.6.4 1.4.4 2.1v5.1h7v-7.8c0-.8-.2-1.5-.5-2.3-.2-.5-.4-.9-.8-1.3-.3-.3-.8-.7-1.3-1 .4-.3.7-.6 1-.8.2-.2.4-.5.6-.9.7-1.1 1.1-2.5 1.1-4.2 0-1.2-.2-2.2-.5-3.1-.4-.9-.9-1.7-1.5-2.3-.7-.6-1.5-1.1-2.5-1.4-1-.3-2.2-.5-3.5-.5h-14v25.7h6.8zM54.8 357.1l2.8 9.2H52l2.8-9.2zm-5.9 19.3l1.5-4.5h8.8l1.5 4.5h7l-7.3-22.9c-.3-1.1-.8-1.8-1.3-2.2-.5-.4-1.3-.6-2.4-.6h-4.3c-.7 0-1.2.1-1.7.2-.4.2-.8.4-1 .7-.3.3-.5.8-.7 1.5l-7.3 23.3h7.2zM69.1 350.6h8.7l7.4 11.9v-11.9h7v25.7h-4.8c-.8 0-1.4-.1-1.8-.2-.4-.1-.9-.4-1.3-.8s-.9-1.1-1.4-2L76 362.2v14.2h-7v-25.8zM101.2 356.2h2.8c.8 0 1.4 0 1.8.1.4 0 .7.1 1 .2 1.4.5 2.4 1.7 2.8 3.6.2.8.3 1.9.3 3.3 0 1.1-.1 2-.2 2.8-.1.8-.3 1.5-.6 2.1-.3.6-.6 1.1-1 1.5-.3.3-.6.5-.9.6-.3.2-.7.3-1.2.3-.4.1-1 .1-1.7.1h-3v-14.6zm2.9 20.2c1.3 0 2.5-.1 3.6-.3 1.1-.2 2.2-.6 3.2-1s1.8-1 2.6-1.6c2.2-1.9 3.3-5.3 3.3-10.2 0-1.8-.2-3.4-.5-4.6-.3-1-.6-1.9-1-2.7-.4-.8-.9-1.5-1.5-2.1-.6-.6-1.3-1.1-2-1.5-.8-.4-1.6-.8-2.6-1-1.5-.4-2.9-.6-4.3-.6H94.3v25.7h9.8zM26.1 356.2h6c.8 0 1.3.2 1.7.6.4.4.5 1 .5 1.8 0 .6-.1 1.1-.2 1.4-.1.3-.4.6-.7.7-.3.1-.8.2-1.4.2h-5.9v-4.7zm-13.2 10.4.9 0h5.3v9.7h7v-9.8h2.8c.5 0 .9 0 1.3.1.4 0 .7.1 1 .2.3.1.5.2.8.3.2.1.5.3.7.5.2.2.4.4.6.7.2.3.3.6.5.9.1.3.2.7.3 1 .1.4.1.7.1 1.1v5h7V368.3c0-.4-.1-.8-.1-1.2-.1-.4-.2-.8-.4-1.2-.1-.3-.2-.5-.3-.7-.1-.2-.3-.4-.4-.6-.2-.2-.3-.3-.6-.5-.2-.2-.5-.3-.8-.5.2-.2.4-.3.6-.5.2-.1.3-.3.4-.4.1-.1.2-.2.3-.4.1-.1.2-.3.3-.5.4-.6.6-1.2.8-1.9.2-.7.3-1.5.3-2.3 0-.6 0-1.1-.1-1.7-.1-.5-.2-1-.4-1.5s-.4-.9-.7-1.3c-.3-.4-.6-.7-.9-1-.3-.3-.7-.6-1.1-.8-.4-.2-.9-.4-1.4-.6-.5-.2-1-.3-1.6-.4-.6-.1-1.2-.1-1.8-.1h-14v10.3h-5.5c-1.6 0-2.9 1.3-2.9 2.9 0 1.6 1.3 2.9 2.9 2.9v.3zM123 373.3c0 .8-.3 1.6-.9 2.2-.6.6-1.3.9-2.2.9s-1.6-.3-2.2-.9c-.6-.6-.9-1.3-.9-2.2 0-.8.3-1.6.9-2.2.6-.6 1.3-.9 2.2-.9s1.6.3 2.2.9c.6.6.9 1.4.9 2.2zm-.4 0c0-.7-.3-1.4-.8-1.9s-1.1-.8-1.9-.8-1.4.3-1.9.8-.8 1.1-.8 1.9c0 .7.3 1.4.8 1.9s1.1.8 1.9.8 1.4-.3 1.9-.8c.6-.5.8-1.2.8-1.9zm-.7 1.6h-.8l-1.2-1.3h-.6v1.3h-.6v-3.2h1.6c.1 0 .3.1.4.1.1.1.3.2.3.3.1.1.1.3.1.4 0 .2-.1.4-.2.6-.1.2-.3.3-.6.4l1.6 1.4zm-1.2-2.3v-.2c0-.1-.1-.1-.2-.2-.1 0-.2-.1-.2-.1h-.8v1.1h.8c.1 0 .2-.1.3-.1l.2-.2c-.1-.1-.1-.2-.1-.3z"/></svg>