<?xml version="1.0" encoding="UTF-8"?>
<svg width="600" height="119" viewBox="0 0 600 119" xmlns="http://www.w3.org/2000/svg">

<g>
	<path fill="#515C71" d="M352.6,18.1c0,0,0-1,0-1.1c0-3-2.3-5.7-5.3-5.8c-1.6-0.1-3,0.4-4.1,1.4c-1,0.9-1.6,2.2-1.7,3.6l-0.1,1.8
		c0,0.1-0.2,92-0.2,92c0,3.1,2.5,5.6,5.6,5.6c3.1,0,5.6-2.5,5.6-5.5C352.4,110,352.6,18.1,352.6,18.1"/>
	<path fill="none" stroke="#515C71" stroke-width="1.791" d="M352.6,18.1c0,0,0-1,0-1.1c0-3-2.3-5.7-5.3-5.8c-1.6-0.1-3,0.4-4.1,1.4
		c-1,0.9-1.6,2.2-1.7,3.6l-0.1,1.8c0,0.1-0.2,92-0.2,92c0,3.1,2.5,5.6,5.6,5.6c3.1,0,5.6-2.5,5.6-5.5
		C352.4,110,352.6,18.1,352.6,18.1z"/>
	<path fill="#515C71" d="M539.9,33.4c-8.1-21.5-15-22.5-35.5-22.3l-11,0.1l-3.4,0c-5.3,0-10.2,2.1-13.9,5.8c-3.7,3.8-5.8,8.8-5.7,14
		l0.5,78.8c0,1.5,0.6,2.9,1.6,3.9c1.1,1.1,2.5,1.6,4,1.6c1.5,0,2.9-0.6,3.9-1.6c1-1.1,1.6-2.5,1.6-4L481.7,31c0-4.7,3.8-8.6,8.5-8.6
		l12-0.1l2.4,0c18.1-0.1,19.2-0.1,25,15.1c0.5,1.4,1.5,2.5,2.9,3.1c1.4,0.6,2.9,0.7,4.3,0.1C539.5,39.5,541,36.3,539.9,33.4"/>
	<path fill="none" stroke="#515C71" stroke-width="1.791" d="M539.9,33.4c-8.1-21.5-15-22.5-35.5-22.3l-11,0.1l-3.4,0
		c-5.3,0-10.2,2.1-13.9,5.8c-3.7,3.8-5.8,8.8-5.7,14l0.5,78.8c0,1.5,0.6,2.9,1.6,3.9c1.1,1.1,2.5,1.6,4,1.6c1.5,0,2.9-0.6,3.9-1.6
		c1-1.1,1.6-2.5,1.6-4L481.7,31c0-4.7,3.8-8.6,8.5-8.6l12-0.1l2.4,0c18.1-0.1,19.2-0.1,25,15.1c0.5,1.4,1.5,2.5,2.9,3.1
		c1.4,0.6,2.9,0.7,4.3,0.1C539.5,39.5,541,36.3,539.9,33.4z"/>
	<path fill="#515C71" d="M232.3,102.8l-55.3,0.1c-2.6,0-4.7-2.1-4.7-4.6v-10v-7.2c0-9.1,0.8-9.8,9.2-12.9c0,0,4.9,0.1,4.9,0.1h7.8
		c0.3,0,11.8,0,11.8,0l9.9,0c0.3,0,6.1,0,6.1,0c8.7,0,15.8-7.1,15.8-15.8V40l-0.1-0.5c0.1-0.3,0.1-12.5,0.1-12.5
		c0-8.7-7.1-15.8-15.8-15.8l-27.5,0c0,0-17.5,0-17.5,0c-8.7,0-15.8,7.1-15.8,15.8l0,12.3v2.9l0.1,46.1c0,0,0,10,0,10
		c0,4.2,1.7,8.2,4.7,11.2c3,3,6.9,4.6,11.1,4.6l55.3-0.1c1.5,0,2.9-0.6,4-1.6c1.1-1.1,1.6-2.5,1.6-4
		C237.8,105.3,235.3,102.8,232.3,102.8 M172.3,42.2l0-2.9c0,0,0-12.2,0-12.3c0-2.6,2.1-4.6,4.6-4.6l32.1,0c0,0,13,0,13,0
		c1.3,0,2.4,0.5,3.3,1.4c0.9,0.9,1.3,2,1.3,3.2l0,12.3c0,0.2,0,0.4,0,0.4v0.5c0,2.2,0,12.2,0,12.2c0,2.6-2.1,4.7-4.6,4.7l-12,0
		l-29.6,0l-1.9,0.4c0,0-3.9,1.7-6.1,2.7C172.3,57.5,172.3,42.2,172.3,42.2"/>
	<path fill="none" stroke="#515C71" stroke-width="1.791" d="M232.3,102.8l-55.3,0.1c-2.6,0-4.7-2.1-4.7-4.6v-10v-7.2
		c0-9.1,0.8-9.8,9.2-12.9c0,0,4.9,0.1,4.9,0.1h7.8c0.3,0,11.8,0,11.8,0l9.9,0c0.3,0,6.1,0,6.1,0c8.7,0,15.8-7.1,15.8-15.8V40
		l-0.1-0.5c0.1-0.3,0.1-12.5,0.1-12.5c0-8.7-7.1-15.8-15.8-15.8l-27.5,0c0,0-17.5,0-17.5,0c-8.7,0-15.8,7.1-15.8,15.8l0,12.3v2.9
		l0.1,46.1c0,0,0,10,0,10c0,4.2,1.7,8.2,4.7,11.2c3,3,6.9,4.6,11.1,4.6l55.3-0.1c1.5,0,2.9-0.6,4-1.6c1.1-1.1,1.6-2.5,1.6-4
		C237.8,105.3,235.3,102.8,232.3,102.8z M172.3,42.2l0-2.9c0,0,0-12.2,0-12.3c0-2.6,2.1-4.6,4.6-4.6l32.1,0c0,0,13,0,13,0
		c1.3,0,2.4,0.5,3.3,1.4c0.9,0.9,1.3,2,1.3,3.2l0,12.3c0,0.2,0,0.4,0,0.4v0.5c0,2.2,0,12.2,0,12.2c0,2.6-2.1,4.7-4.6,4.7l-12,0
		l-29.6,0l-1.9,0.4c0,0-3.9,1.7-6.1,2.7C172.3,57.5,172.3,42.2,172.3,42.2z"/>
	<path fill="#515C71" d="M446,102.8l-55.3,0.1c-2.6,0-4.7-2.1-4.7-4.6v-10v-7.2c0-9.1,0.8-9.8,9.2-12.9c0,0,4.9,0.1,4.9,0.1h7.8
		c0.3,0,11.8,0,11.8,0l9.9,0c0.3,0,6.1,0,6.1,0c8.7,0,15.8-7.1,15.8-15.8V40l-0.1-0.5c0.1-0.3,0.1-12.5,0.1-12.5
		c0-8.7-7.1-15.8-15.8-15.8l-27.5,0c0,0-17.5,0-17.5,0c-8.7,0-15.8,7.1-15.8,15.8l0,12.3v2.9l0.1,46.1c0,0,0,10,0,10
		c0,4.2,1.7,8.2,4.7,11.2c3,3,6.9,4.6,11.1,4.6l55.3-0.1c1.5,0,2.9-0.6,4-1.6c1.1-1.1,1.6-2.5,1.6-4
		C451.6,105.3,449.1,102.8,446,102.8 M386,42.2l0-2.9c0,0,0-12.2,0-12.3c0-2.6,2.1-4.6,4.6-4.6l32.1,0c0,0,13,0,13,0
		c1.3,0,2.4,0.5,3.3,1.4c0.9,0.9,1.4,2,1.4,3.2l0,12.3c0,0.2,0,0.4,0,0.4v0.5c0,2.2,0,12.2,0,12.2c0,2.6-2.1,4.7-4.6,4.7l-12,0
		l-29.6,0l-1.9,0.4c0,0-3.9,1.7-6.1,2.7C386,57.5,386,42.2,386,42.2"/>
	<path fill="none" stroke="#515C71" stroke-width="1.791" d="M446,102.8l-55.3,0.1c-2.6,0-4.7-2.1-4.7-4.6v-10v-7.2
		c0-9.1,0.8-9.8,9.2-12.9c0,0,4.9,0.1,4.9,0.1h7.8c0.3,0,11.8,0,11.8,0l9.9,0c0.3,0,6.1,0,6.1,0c8.7,0,15.8-7.1,15.8-15.8V40
		l-0.1-0.5c0.1-0.3,0.1-12.5,0.1-12.5c0-8.7-7.1-15.8-15.8-15.8l-27.5,0c0,0-17.5,0-17.5,0c-8.7,0-15.8,7.1-15.8,15.8l0,12.3v2.9
		l0.1,46.1c0,0,0,10,0,10c0,4.2,1.7,8.2,4.7,11.2c3,3,6.9,4.6,11.1,4.6l55.3-0.1c1.5,0,2.9-0.6,4-1.6c1.1-1.1,1.6-2.5,1.6-4
		C451.6,105.3,449.1,102.8,446,102.8z M386,42.2l0-2.9c0,0,0-12.2,0-12.3c0-2.6,2.1-4.6,4.6-4.6l32.1,0c0,0,13,0,13,0
		c1.3,0,2.4,0.5,3.3,1.4c0.9,0.9,1.4,2,1.4,3.2l0,12.3c0,0.2,0,0.4,0,0.4v0.5c0,2.2,0,12.2,0,12.2c0,2.6-2.1,4.7-4.6,4.7l-12,0
		l-29.6,0l-1.9,0.4c0,0-3.9,1.7-6.1,2.7C386,57.5,386,42.2,386,42.2z"/>
	<path fill="#515C71" d="M318.2,22.1c3.1,0,5.6-2.5,5.6-5.6c0-2.9-2.2-5.2-5-5.5c-0.2,0-1.7,0.1-1.7,0.1h-45.8l-11.7-0.1l-3.4,0
		c-3.1,0-5.6,2.5-5.6,5.6c0,3.1,2.5,5.6,5.6,5.6h19.3v72.4c0,10.9,8.9,19.7,19.8,19.7h20.9c3,0,5.6-2.5,5.6-5.6
		c0-3.1-2.5-5.6-5.6-5.6h-20.9c-4.7,0-8.6-3.9-8.6-8.6V22.1H318.2z"/>
	<path fill="none" stroke="#515C71" stroke-width="1.791" d="M318.2,22.1c3.1,0,5.6-2.5,5.6-5.6c0-2.9-2.2-5.2-5-5.5
		c-0.2,0-1.7,0.1-1.7,0.1h-45.8l-11.7-0.1l-3.4,0c-3.1,0-5.6,2.5-5.6,5.6c0,3.1,2.5,5.6,5.6,5.6h19.3v72.4
		c0,10.9,8.9,19.7,19.8,19.7h20.9c3,0,5.6-2.5,5.6-5.6c0-3.1-2.5-5.6-5.6-5.6h-20.9c-4.7,0-8.6-3.9-8.6-8.6V22.1H318.2z"/>
	<path fill="#515C71" d="M143.2,30.7c0-10.9-8.9-19.7-19.8-19.7H120l-16,0c-15.4,0-23.4,0.8-29.9,11.2
		c-6.4-10.4-14.4-11.2-29.8-11.2l-16,0h-3.4C14.1,11,5.2,19.9,5.2,30.7L5,109.4c0,1.5,0.6,2.9,1.6,3.9c1.1,1.1,2.5,1.6,3.9,1.6
		c1.5,0,2.9-0.6,4-1.6c1.1-1.1,1.6-2.5,1.6-4l0.2-78.7c0-2.3,0.9-4.5,2.6-6.1c1.6-1.6,3.8-2.5,6.1-2.5l17,0h2.4
		c17.6,0,19.1,0,24.4,14.2c0,0.1,0.1,0.6,0.1,0.6c0-0.3-0.1,28.2-0.1,28.2l-0.2,44.1c0,3.1,2.3,5.5,5.2,5.7c0.2,0,0.3,0,0.5-0.1
		c0.2,0,0.3,0.1,0.5,0.1c3-0.2,5.2-2.6,5.2-5.7l-0.2-44.1c0,0-0.1-28.6-0.1-28.2c0,0,0.1-0.6,0.1-0.6c5.3-14.2,6.7-14.2,24.4-14.2
		h2.4l17,0c2.3,0,4.4,0.9,6.1,2.5c1.6,1.6,2.5,3.8,2.5,6.1l0.2,78.7c0,1.5,0.6,2.9,1.7,4c1.1,1.1,2.4,1.6,3.9,1.6
		c1.5,0,2.9-0.6,3.9-1.6c1.1-1,1.6-2.5,1.6-3.9L143.2,30.7z"/>
	<path fill="none" stroke="#515C71" stroke-width="1.791" d="M143.2,30.7c0-10.9-8.9-19.7-19.8-19.7H120l-16,0
		c-15.4,0-23.4,0.8-29.9,11.2c-6.4-10.4-14.4-11.2-29.8-11.2l-16,0h-3.4C14.1,11,5.2,19.9,5.2,30.7L5,109.4c0,1.5,0.6,2.9,1.6,3.9
		c1.1,1.1,2.5,1.6,3.9,1.6c1.5,0,2.9-0.6,4-1.6c1.1-1.1,1.6-2.5,1.6-4l0.2-78.7c0-2.3,0.9-4.5,2.6-6.1c1.6-1.6,3.8-2.5,6.1-2.5l17,0
		h2.4c17.6,0,19.1,0,24.4,14.2c0,0.1,0.1,0.6,0.1,0.6c0-0.3-0.1,28.2-0.1,28.2l-0.2,44.1c0,3.1,2.3,5.5,5.2,5.7c0.2,0,0.3,0,0.5-0.1
		c0.2,0,0.3,0.1,0.5,0.1c3-0.2,5.2-2.6,5.2-5.7l-0.2-44.1c0,0-0.1-28.6-0.1-28.2c0,0,0.1-0.6,0.1-0.6c5.3-14.2,6.7-14.2,24.4-14.2
		h2.4l17,0c2.3,0,4.4,0.9,6.1,2.5c1.6,1.6,2.5,3.8,2.5,6.1l0.2,78.7c0,1.5,0.6,2.9,1.7,4c1.1,1.1,2.4,1.6,3.9,1.6
		c1.5,0,2.9-0.6,3.9-1.6c1.1-1,1.6-2.5,1.6-3.9L143.2,30.7z"/>
	<path fill="#515C71" d="M573.1,2c3.7,0,7.3,0.9,10.8,2.8c3.5,1.9,6.2,4.6,8.2,8.1c2,3.5,2.9,7.2,2.9,11c0,3.8-1,7.4-2.9,10.9
		c-1.9,3.5-4.6,6.2-8.1,8.1c-3.5,1.9-7.1,2.9-10.9,2.9c-3.8,0-7.4-1-10.9-2.9c-3.5-1.9-6.2-4.6-8.1-8.1c-1.9-3.5-2.9-7.1-2.9-10.9
		c0-3.8,1-7.5,2.9-11c2-3.5,4.7-6.2,8.2-8.1C565.9,2.9,569.5,2,573.1,2 M573.1,5.6c-3.1,0-6.1,0.8-9,2.4c-2.9,1.6-5.2,3.8-6.8,6.8
		c-1.6,2.9-2.5,6-2.5,9.1c0,3.1,0.8,6.2,2.4,9.1c1.6,2.9,3.9,5.1,6.8,6.8c2.9,1.6,5.9,2.4,9.1,2.4c3.2,0,6.2-0.8,9.1-2.4
		c2.9-1.6,5.1-3.9,6.8-6.8c1.6-2.9,2.4-5.9,2.4-9.1c0-3.2-0.8-6.2-2.5-9.1c-1.6-2.9-3.9-5.2-6.8-6.8C579.2,6.4,576.2,5.6,573.1,5.6
		 M563.6,36V12.4h8.1c2.8,0,4.8,0.2,6,0.7c1.2,0.4,2.2,1.2,3,2.3c0.7,1.1,1.1,2.2,1.1,3.4c0,1.7-0.6,3.2-1.8,4.5
		c-1.2,1.3-2.9,2-4.9,2.1c0.8,0.3,1.5,0.8,2,1.2c0.9,0.9,2.1,2.5,3.5,4.7l2.9,4.6h-4.6l-2.1-3.7c-1.6-2.9-3-4.7-4-5.5
		c-0.7-0.5-1.7-0.8-3-0.8h-2.2v10H563.6z M567.4,22.7h4.6c2.2,0,3.7-0.3,4.5-1c0.8-0.7,1.2-1.5,1.2-2.6c0-0.7-0.2-1.3-0.6-1.9
		c-0.4-0.6-0.9-1-1.6-1.2c-0.7-0.3-2-0.4-3.8-0.4h-4.3V22.7z"/>
</g>
</svg>
